<svg version="1.1" viewBox="0.0 0.0 100.0 100.0" fill="none" stroke="none" stroke-linecap="square" stroke-miterlimit="10" xmlns:xlink="http://www.w3.org/1999/xlink" xmlns="http://www.w3.org/2000/svg"><clipPath id="p.0"><path d="m0 0l100.0 0l0 100.0l-100.0 0l0 -100.0z" clip-rule="nonzero"/></clipPath><g clip-path="url(#p.0)"><path fill="#000000" fill-opacity="0.0" d="m0 0l100.0 0l0 100.0l-100.0 0z" fill-rule="evenodd"/><path fill="#6fa8dc" d="m0.4711286 38.687664l0 0c0 -3.1238136 22.174831 -5.656166 49.52887 -5.656166c27.354042 0 49.52887 2.5323524 49.52887 5.656166l0 22.624672c0 3.1238136 -22.174828 5.65617 -49.52887 5.65617c-27.35404 0 -49.52887 -2.5323563 -49.52887 -5.65617z" fill-rule="evenodd"/><path fill="#000000" fill-opacity="0.0" d="m99.52887 38.687664l0 0c0 3.1238136 -22.174828 5.65617 -49.52887 5.65617c-27.35404 0 -49.52887 -2.5323563 -49.52887 -5.65617" fill-rule="evenodd"/><path fill="#000000" fill-opacity="0.0" d="m0.4711286 38.687664l0 0c0 -3.1238136 22.174831 -5.656166 49.52887 -5.656166c27.354042 0 49.52887 2.5323524 49.52887 5.656166l0 22.624672c0 3.1238136 -22.174828 5.65617 -49.52887 5.65617c-27.35404 0 -49.52887 -2.5323563 -49.52887 -5.65617z" fill-rule="evenodd"/><path stroke="#000000" stroke-width="1.0" stroke-linejoin="round" stroke-linecap="butt" d="m99.52887 38.687664l0 0c0 3.1238136 -22.174828 5.65617 -49.52887 5.65617c-27.35404 0 -49.52887 -2.5323563 -49.52887 -5.65617" fill-rule="evenodd"/><path stroke="#000000" stroke-width="1.0" stroke-linejoin="round" stroke-linecap="butt" d="m0.4711286 38.687664l0 0c0 -3.1238136 22.174831 -5.656166 49.52887 -5.656166c27.354042 0 49.52887 2.5323524 49.52887 5.656166l0 22.624672c0 3.1238136 -22.174828 5.65617 -49.52887 5.65617c-27.35404 0 -49.52887 -2.5323563 -49.52887 -5.65617z" fill-rule="evenodd"/></g></svg>