<svg version="1.1" viewBox="0.0 0.0 960.0 720.0" fill="none" stroke="none" stroke-linecap="square" stroke-miterlimit="10" xmlns:xlink="http://www.w3.org/1999/xlink" xmlns="http://www.w3.org/2000/svg"><clipPath id="p.0"><path d="m0 0l960.0 0l0 720.0l-960.0 0l0 -720.0z" clip-rule="nonzero"/></clipPath><g clip-path="url(#p.0)"><path fill="#000000" fill-opacity="0.0" d="m0 0l960.0 0l0 720.0l-960.0 0z" fill-rule="evenodd"/><path fill="#434343" d="m260.9344 348.68765l0 0c0 -3.1238098 22.174835 -5.6561584 49.52887 -5.6561584c27.354034 0 49.52887 2.5323486 49.52887 5.6561584l0 22.624695c0 3.1238098 -22.174835 5.6561584 -49.52887 5.6561584c-27.354034 0 -49.52887 -2.5323486 -49.52887 -5.6561584z" fill-rule="evenodd"/><path fill="#000000" fill-opacity="0.0" d="m359.99213 348.68765l0 0c0 3.1238403 -22.174835 5.656189 -49.52887 5.656189c-27.354034 0 -49.52887 -2.5323486 -49.52887 -5.656189" fill-rule="evenodd"/><path fill="#000000" fill-opacity="0.0" d="m260.9344 348.68765l0 0c0 -3.1238098 22.174835 -5.6561584 49.52887 -5.6561584c27.354034 0 49.52887 2.5323486 49.52887 5.6561584l0 22.624695c0 3.1238098 -22.174835 5.6561584 -49.52887 5.6561584c-27.354034 0 -49.52887 -2.5323486 -49.52887 -5.6561584z" fill-rule="evenodd"/><path stroke="#999999" stroke-width="1.0" stroke-linejoin="round" stroke-linecap="butt" d="m359.99213 348.68765l0 0c0 3.1238403 -22.174835 5.656189 -49.52887 5.656189c-27.354034 0 -49.52887 -2.5323486 -49.52887 -5.656189" fill-rule="evenodd"/><path stroke="#999999" stroke-width="1.0" stroke-linejoin="round" stroke-linecap="butt" d="m260.9344 348.68765l0 0c0 -3.1238098 22.174835 -5.6561584 49.52887 -5.6561584c27.354034 0 49.52887 2.5323486 49.52887 5.6561584l0 22.624695c0 3.1238098 -22.174835 5.6561584 -49.52887 5.6561584c-27.354034 0 -49.52887 -2.5323486 -49.52887 -5.6561584z" fill-rule="evenodd"/></g></svg>